<svg id="Layer_1" data-name="Layer 1" xmlns="http://www.w3.org/2000/svg" viewBox="0 0 715 200.18"><defs><style>.cls-1{fill:#420828;}.cls-2{fill:#7d1345;}.cls-3{fill:#b51e6d;}.cls-4{fill-rule:evenodd;}</style></defs><path d="M708.63,504.93c0-16.72-8.3-25.5-28.19-25.5H655v51.28h25.41C700.34,530.71,708.63,522.21,708.63,504.93Zm55.53.56c0,20.56-10.27,34.82-29.54,45.83l42.54,85H717.6l-34-70.48H655v70.46H602V444.33h86.73C740.66,444.33,764.16,469.29,764.16,505.49Z" transform="translate(-602 -440.72)"/><path d="M1158.43,444.78l-20.7,40.59h67.68V636.72h53.32V485.37H1317V444.78Z" transform="translate(-602 -440.72)"/><path class="cls-1" d="M1112,444.57h29l-114.1,93.49V505.53Z" transform="translate(-602 -440.72)"/><path class="cls-2" d="M1111.7,444.57H1142l-44,85.73-48,21.77Z" transform="translate(-602 -440.72)"/><path class="cls-3" d="M1049.9,552.07l48-21.77,52.3,105.85h-59.81Z" transform="translate(-602 -440.72)"/><rect x="372.83" y="4" width="53.05" height="191.67"/><path class="cls-4" d="M868.05,440.72c-27.36,0-49.46,9-66,26.88s-24.86,41.95-24.86,72.93v.55q0,46.5,24.86,73.22c16.59,17.82,38.67,26.6,66,26.6s49.44-8.78,65.74-26.6q24.86-26.74,24.86-73.22v-.55c0-31-8.29-55.09-24.86-72.93C917.49,449.77,895.4,440.72,868.05,440.72Zm-.26,39c-11.16,0-20.18,5.65-26.94,16.8s-10.15,26.21-10.15,45.58v.34q0,29.07,10.15,45.77c6.77,11.14,15.78,16.62,26.94,16.62s20.18-5.48,26.83-16.62,10.15-26.4,10.15-45.77v-.34c0-19.37-3.38-34.43-10.15-45.58S879,479.76,867.79,479.76Z" transform="translate(-602 -440.72)"/></svg>